<svg width="48" height="48" viewBox="0 0 48 48" fill="none" xmlns="http://www.w3.org/2000/svg">
<circle cx="24" cy="24" r="23.5" stroke="white"/>
<path d="M21.3359 18.832V20.64H16.6799V23.504H20.2479V25.28H16.6799V30H14.4399V18.832H21.3359ZM25.1643 22.432C25.4523 22.0053 25.847 21.6587 26.3483 21.392C26.8603 21.1253 27.4416 20.992 28.0923 20.992C28.8496 20.992 29.5323 21.1787 30.1403 21.552C30.759 21.9253 31.2443 22.4587 31.5963 23.152C31.959 23.8347 32.1403 24.6293 32.1403 25.536C32.1403 26.4427 31.959 27.248 31.5963 27.952C31.2443 28.6453 30.759 29.184 30.1403 29.568C29.5323 29.952 28.8496 30.144 28.0923 30.144C27.431 30.144 26.8496 30.016 26.3483 29.76C25.8576 29.4933 25.463 29.152 25.1643 28.736V30H22.9243V18.16H25.1643V22.432ZM29.8523 25.536C29.8523 25.0027 29.7403 24.544 29.5163 24.16C29.303 23.7653 29.015 23.4667 28.6523 23.264C28.3003 23.0613 27.9163 22.96 27.5003 22.96C27.095 22.96 26.711 23.0667 26.3483 23.28C25.9963 23.4827 25.7083 23.7813 25.4843 24.176C25.271 24.5707 25.1643 25.0347 25.1643 25.568C25.1643 26.1013 25.271 26.5653 25.4843 26.96C25.7083 27.3547 25.9963 27.6587 26.3483 27.872C26.711 28.0747 27.095 28.176 27.5003 28.176C27.9163 28.176 28.3003 28.0693 28.6523 27.856C29.015 27.6427 29.303 27.3387 29.5163 26.944C29.7403 26.5493 29.8523 26.08 29.8523 25.536Z" fill="white"/>
</svg>
