<svg width="48" height="48" viewBox="0 0 48 48" fill="none" xmlns="http://www.w3.org/2000/svg">
<circle cx="24" cy="24" r="23.5" stroke="white"/>
<path d="M18.6956 18.832V30H16.4556V18.832H18.6956ZM24.3807 20.992C25.042 20.992 25.6234 21.1253 26.1247 21.392C26.626 21.648 27.0207 21.984 27.3087 22.4V21.136H29.5647V30.064C29.5647 30.8853 29.3994 31.616 29.0687 32.256C28.738 32.9067 28.242 33.4187 27.5807 33.792C26.9194 34.176 26.1194 34.368 25.1807 34.368C23.922 34.368 22.8874 34.0747 22.0767 33.488C21.2767 32.9013 20.8234 32.1013 20.7167 31.088H22.9407C23.058 31.4933 23.3087 31.8133 23.6927 32.048C24.0874 32.2933 24.562 32.416 25.1167 32.416C25.7674 32.416 26.2954 32.2187 26.7007 31.824C27.106 31.44 27.3087 30.8533 27.3087 30.064V28.688C27.0207 29.104 26.6207 29.4507 26.1087 29.728C25.6074 30.0053 25.0314 30.144 24.3807 30.144C23.634 30.144 22.9514 29.952 22.3327 29.568C21.714 29.184 21.2234 28.6453 20.8607 27.952C20.5087 27.248 20.3327 26.4427 20.3327 25.536C20.3327 24.64 20.5087 23.8453 20.8607 23.152C21.2234 22.4587 21.7087 21.9253 22.3167 21.552C22.9354 21.1787 23.6234 20.992 24.3807 20.992ZM27.3087 25.568C27.3087 25.024 27.202 24.56 26.9887 24.176C26.7754 23.7813 26.4874 23.4827 26.1247 23.28C25.762 23.0667 25.3727 22.96 24.9567 22.96C24.5407 22.96 24.1567 23.0613 23.8047 23.264C23.4527 23.4667 23.1647 23.7653 22.9407 24.16C22.7274 24.544 22.6207 25.0027 22.6207 25.536C22.6207 26.0693 22.7274 26.5387 22.9407 26.944C23.1647 27.3387 23.4527 27.6427 23.8047 27.856C24.1674 28.0693 24.5514 28.176 24.9567 28.176C25.3727 28.176 25.762 28.0747 26.1247 27.872C26.4874 27.6587 26.7754 27.36 26.9887 26.976C27.202 26.5813 27.3087 26.112 27.3087 25.568Z" fill="white"/>
</svg>
